<svg width="112" height="37" viewBox="0 0 112 37" fill="none" xmlns="http://www.w3.org/2000/svg">
<path d="M111.992 35.4132C112.21 29.2433 108.125 24.3759 101.563 24.3759C100.884 24.3759 100.183 24.4641 99.4902 24.613L111.34 9.34296H88.3113V15.1225H99.6348L84.1826 35.4132H91.6131C94.046 32.1114 96.9575 29.8519 100.478 29.8519C103.998 29.8519 105.779 32.0246 105.649 35.4132H111.992Z" fill="#121212"/>
<path d="M83.1443 15.1211V9.34155H74.7149V7.6473C74.7149 2.95484 71.6299 0 66.6758 0C61.7217 0 58.4199 3.12831 58.4199 7.60393C58.4199 12.3831 61.7217 15.1211 67.4145 15.1211H68.4568V27.6777C68.4568 33.0222 71.2382 36.0637 76.8428 36.0637C78.7987 36.0637 80.3615 35.7601 81.2317 35.325V29.8938C80.4496 30.1974 79.5808 30.4157 78.3636 30.4157C75.7572 30.4157 74.7134 29.025 74.7134 26.5921V15.1211H83.1428H83.1443ZM66.8493 9.34155C65.2418 9.34155 64.2862 8.55948 64.2862 7.21217C64.2862 5.99496 65.1117 5.16952 66.2855 5.16952C67.6328 5.16952 68.4583 6.12506 68.4583 7.68922V9.34012H66.8507L66.8493 9.34155Z" fill="#121212"/>
<path d="M47.4318 8.78787C38.2247 7.76727 31.0819 14.9086 32.0997 24.1157C32.7444 29.9473 38.1192 35.3221 43.9508 35.9669C53.1579 36.9846 60.2978 29.8461 59.2801 20.639C58.6353 14.8089 53.262 9.43406 47.4318 8.78787Z" fill="#121212"/>
<path d="M28.2415 0.651978H21.9849V7.17025C21.9849 10.1916 21.8924 11.5403 21.6076 14.0947C19.1992 10.3434 15.6936 8.69103 11.601 8.69103C4.12723 8.69103 0 15.0778 0 22.2046C0 29.3315 4.12723 36.0652 11.601 36.0652C15.6979 36.0652 19.2064 34.4099 21.6148 30.6514C21.9314 33.1089 21.9863 34.3579 21.9863 35.4132H28.243V34.1093C28.243 29.8823 27.5086 25.6553 26.5371 22.2466C27.6112 18.8624 28.243 14.8653 28.243 7.60538V0.653425L28.2415 0.651978ZM12.2082 30.0688C8.12434 30.0688 6.34191 26.2885 6.34191 22.2046C6.34191 18.3376 8.1229 14.6874 12.2082 14.6874C15.3365 14.6874 18.248 17.5989 19.6387 22.2046C18.248 27.0272 15.3365 30.0688 12.2082 30.0688Z" fill="#121212"/>
</svg>
